<svg width="76" height="81" viewBox="0 0 76 81" fill="none" xmlns="http://www.w3.org/2000/svg">
<path d="M66.8873 4.47491V72.3907C66.8873 74.861 64.8844 76.8638 62.4142 76.8638H13.7134C11.2432 76.8638 9.24033 74.861 9.24033 72.3907V4.47491C9.24033 2.00288 11.2432 0 13.7134 0H62.4142C64.8844 0 66.8873 2.00288 66.8873 4.47491Z" fill="#808080"/>
<path d="M13.932 66.8505V7.57884H62.1966V66.8505H13.932Z" fill="white"/>
<path d="M23.317 40.8074H25.2724H31.1396H33.0951L35.1412 32.474H21.2708L23.317 40.8074ZM27.6853 34.8982H25.5297L25.3441 33.5157H27.6853V34.8982ZM28.727 33.5155H31.0682L30.8825 34.898H28.727V33.5155ZM24.4787 34.8982H22.9541L22.6183 33.5157H24.2928L24.4787 34.8982ZM23.2071 35.9399H24.6187L24.8147 37.3982H23.5613L23.2071 35.9399ZM25.6698 35.9399H27.6853V37.3982H25.8655L25.6698 35.9399ZM28.727 35.9399H30.7425L30.5465 37.3982H28.7268L28.727 35.9399ZM31.7935 35.9399H33.2051L32.8511 37.3982H31.5978L31.7935 35.9399ZM31.9336 34.8982L32.1192 33.5157H33.7937L33.4579 34.8982H31.9336ZM24.136 39.7657L23.8141 38.4399H24.9545L25.1326 39.7657H24.136ZM26.0056 38.4399H27.6853V39.7657H26.1837L26.0056 38.4399ZM28.727 39.7657V38.4399H30.4067L30.2286 39.7657H28.727ZM31.2796 39.7657L31.4577 38.4399H32.5981L32.2762 39.7657H31.2796Z" fill="#29ABE2"/>
<path d="M21.2708 32.4738H22.3435L21.6072 29.4751H18.4031V30.5167H20.7903L21.2708 32.4738Z" fill="#29ABE2"/>
<path d="M26.016 43.7619C26.6412 43.7619 27.1479 43.2552 27.1479 42.63C27.1479 42.0049 26.6412 41.4981 26.016 41.4981C25.3909 41.4981 24.8841 42.0049 24.8841 42.63C24.8841 43.2552 25.3909 43.7619 26.016 43.7619Z" fill="#29ABE2"/>
<path d="M31.6764 43.7619C32.3016 43.7619 32.8083 43.2552 32.8083 42.63C32.8083 42.0049 32.3016 41.4981 31.6764 41.4981C31.0513 41.4981 30.5445 42.0049 30.5445 42.63C30.5445 43.2552 31.0513 43.7619 31.6764 43.7619Z" fill="#29ABE2"/>
<path d="M23.317 59.4747H25.2724H31.1396H33.0951L35.1412 51.1412H21.2708L23.317 59.4747ZM27.6853 53.5654H25.5297L25.3441 52.1829H27.6853V53.5654ZM28.727 52.1829H31.0682L30.8825 53.5654H28.727V52.1829ZM24.4787 53.5654H22.9541L22.6183 52.1829H24.2928L24.4787 53.5654ZM23.2071 54.6071H24.6187L24.8147 56.0654H23.5613L23.2071 54.6071ZM25.6698 54.6071H27.6853V56.0654H25.8655L25.6698 54.6071ZM28.727 54.6071H30.7425L30.5465 56.0654H28.7268L28.727 54.6071ZM31.7935 54.6071H33.2051L32.8511 56.0654H31.5978L31.7935 54.6071ZM31.9336 53.5654L32.1192 52.1829H33.7937L33.4579 53.5654H31.9336ZM24.136 58.433L23.8141 57.1071H24.9545L25.1326 58.433H24.136ZM26.0056 57.1071H27.6853V58.433H26.1837L26.0056 57.1071ZM28.727 58.433V57.1071H30.4067L30.2286 58.433H28.727ZM31.2796 58.433L31.4577 57.1071H32.5981L32.2762 58.433H31.2796Z" fill="#29ABE2"/>
<path d="M21.2708 51.141H22.3435L21.6072 48.1423H18.4031V49.184H20.7903L21.2708 51.141Z" fill="#29ABE2"/>
<path d="M26.016 62.4292C26.6412 62.4292 27.1479 61.9224 27.1479 61.2973C27.1479 60.6721 26.6412 60.1654 26.016 60.1654C25.3909 60.1654 24.8841 60.6721 24.8841 61.2973C24.8841 61.9224 25.3909 62.4292 26.016 62.4292Z" fill="#29ABE2"/>
<path d="M31.6764 62.4292C32.3016 62.4292 32.8083 61.9224 32.8083 61.2973C32.8083 60.6721 32.3016 60.1654 31.6764 60.1654C31.0513 60.1654 30.5445 60.6721 30.5445 61.2973C30.5445 61.9224 31.0513 62.4292 31.6764 62.4292Z" fill="#29ABE2"/>
<path d="M56.7944 35.2652H39.5122V33.1001H56.7944V35.2652Z" fill="#999999"/>
<path d="M56.7944 40.1369H39.5122V37.9718H56.7944V40.1369Z" fill="#999999"/>
<path d="M56.7944 53.9324H39.5122V51.7673H56.7944V53.9324Z" fill="#FC7A51"/>
<path d="M56.7944 58.8041H39.5122V56.639H56.7944V58.8041Z" fill="#FC7A51"/>
<path d="M56.7944 15.9689H19.334V13.8037H56.7944V15.9689Z" fill="#F9DE58"/>
<path d="M56.7944 20.8406H19.334V18.6754H56.7944V20.8406Z" fill="#F9DE58"/>
<path d="M18.7387 19.7257C18.7387 23.2858 16.7539 26.3803 13.8307 27.9664C12.5045 28.6864 10.9852 29.096 9.37025 29.096C4.19523 29.096 0 24.9007 0 19.7257C0 14.852 3.72067 10.8481 8.47527 10.3988C8.76938 10.3699 9.06891 10.3555 9.37025 10.3555C14.5435 10.3555 18.7387 14.5507 18.7387 19.7257Z" fill="#FC7A51"/>
<path d="M62.1966 54.5871V66.8503H49.4525L52.5044 76.8637H62.4142C64.8844 76.8637 66.8873 74.8608 66.8873 72.3906V55.6098C66.7509 55.6158 66.6138 55.6187 66.4759 55.6187C64.9342 55.6188 63.4793 55.2466 62.1966 54.5871ZM62.4142 0H29.0779L31.3877 7.57884H62.1966V37.9121C63.281 37.3545 64.488 37.0025 65.7668 36.907C66.0013 36.889 66.2377 36.88 66.4759 36.88C66.6136 36.88 66.7509 36.883 66.8873 36.8888V4.47491C66.8873 2.00288 64.8844 0 62.4142 0Z" fill="#A9A9A9"/>
<path d="M62.1966 7.57884H31.3877L33.2851 13.8037H56.7946V15.9689H33.9449L34.7697 18.6754H56.7944V20.8406H35.4298L39.5122 34.2356V33.1003H56.7946V35.2656H39.8262L40.651 37.972H56.7946V40.1373H41.311L44.8558 51.7677H56.7946V53.9328H45.5156L46.3404 56.6392H56.7946V58.8045H47.0003L49.4527 66.8509H62.1968V54.5876C59.1737 53.0335 57.1058 49.8841 57.1058 46.2507C57.1058 42.6174 59.1742 39.4667 62.1968 37.9124L62.1966 7.57884Z" fill="white"/>
<path d="M56.7944 33.1001H39.5122V34.2354L39.826 35.2652H56.7944V33.1001Z" fill="#BABABA"/>
<path d="M56.7944 37.9718H40.651L41.3108 40.1369H56.7944V37.9718Z" fill="#BABABA"/>
<path d="M56.7944 51.7673H44.8556L45.5155 53.9324H56.7944V51.7673Z" fill="#FDA589"/>
<path d="M56.7944 56.639H46.3402L47.0003 58.8041H56.7944V56.639Z" fill="#FDA589"/>
<path d="M56.7944 13.8037H33.285L33.9449 15.9689H56.7944V13.8037Z" fill="#FBE98E"/>
<path d="M56.7944 18.6754H34.7697L35.4298 20.8406H56.7944V18.6754Z" fill="#FBE98E"/>
<path d="M18.7387 71.1493C18.7387 74.5632 16.9126 77.5531 14.1826 79.1897C12.7752 80.0342 11.1295 80.5196 9.37025 80.5196C4.19523 80.5196 0 76.3243 0 71.1493C0 66.1385 3.93359 62.0461 8.88126 61.7917C9.04365 61.7827 9.20605 61.7791 9.37025 61.7791C14.5435 61.7791 18.7387 65.9743 18.7387 71.1493Z" fill="#86D359"/>
<path d="M75.8462 46.2504C75.8462 49.7437 73.9335 52.7913 71.0988 54.4009C69.7347 55.1768 68.1576 55.6188 66.4759 55.6188C61.3009 55.6188 57.1057 51.4254 57.1057 46.2504C57.1057 41.3136 60.9238 37.2681 65.7668 36.9072C66.0013 36.8892 66.2377 36.8801 66.4759 36.8801C71.6509 36.8801 75.8462 41.0754 75.8462 46.2504Z" fill="#29ABE2"/>
<path d="M5.86844 18.9188C4.61312 18.9188 3.59201 17.8975 3.59201 16.6423C3.59201 15.3872 4.6133 14.3657 5.86844 14.3657C7.12376 14.3657 8.14505 15.387 8.14505 16.6423C8.14505 17.8977 7.12376 18.9188 5.86844 18.9188ZM5.86844 15.3345C5.1474 15.3345 4.56079 15.9211 4.56079 16.6422C4.56079 17.3632 5.1474 17.9498 5.86844 17.9498C6.58948 17.9498 7.17609 17.3632 7.17609 16.6422C7.17609 15.9211 6.58948 15.3345 5.86844 15.3345Z" fill="white"/>
<path d="M12.8701 25.0868C11.6149 25.0868 10.5934 24.0655 10.5934 22.8101C10.5934 21.555 11.6147 20.5337 12.8701 20.5337C14.1254 20.5337 15.1467 21.555 15.1467 22.8101C15.1467 24.0655 14.1254 25.0868 12.8701 25.0868ZM12.8701 21.5027C12.149 21.5027 11.5624 22.0893 11.5624 22.8103C11.5624 23.5314 12.1492 24.118 12.8701 24.118C13.5911 24.118 14.1777 23.5314 14.1777 22.8103C14.1777 22.0893 13.5911 21.5027 12.8701 21.5027Z" fill="white"/>
<path d="M8.71922 25.4886L7.76902 25.2999L10.0195 13.9639L10.9698 14.1526L8.71922 25.4886Z" fill="white"/>
<path d="M72.3471 50.2123L71.8765 51.2056L68.0208 48.4745L68.9348 47.7935L72.3471 50.2123Z" fill="white"/>
<path d="M62.5131 40.3783L64.9319 43.7903L64.2511 44.7046L61.5198 40.8489L62.5131 40.3783Z" fill="white"/>
<path d="M71.8765 51.2056L69.6542 52.1206C67.512 51.418 65.6011 50.2267 64.0499 48.6753C62.4985 47.1243 61.3072 45.213 60.6046 43.071L61.5198 40.8487L64.2511 44.7044L63.3422 44.9873C63.8628 45.905 64.5031 46.7437 65.2426 47.483C65.982 48.2224 66.8205 48.8624 67.7383 49.3834L68.0212 48.4745L71.8765 51.2056Z" fill="white"/>
<path d="M9.36952 75.5778H7.42546V74.4952H9.36934C10.1425 74.4952 10.7717 73.866 10.7717 73.0928C10.7717 72.3195 10.1425 71.6903 9.36934 71.6903C7.99908 71.6903 6.88414 70.5755 6.88414 69.2052C6.88414 67.835 7.99908 66.72 9.36934 66.72H11.313V67.8027H9.36952C8.59615 67.8027 7.96696 68.4319 7.96696 69.2052C7.96696 69.9786 8.59615 70.6076 9.36952 70.6076C10.7398 70.6076 11.8545 71.7226 11.8545 73.0928C11.8545 74.4631 10.7396 75.5778 9.36952 75.5778Z" fill="white"/>
<path d="M9.9103 67.2616H8.82766V64.6143H9.9103V67.2616Z" fill="white"/>
<path d="M8.82766 75.0365H9.9103V77.6839H8.82766V75.0365Z" fill="white"/>
<path d="M40.4998 72.2626C40.4998 73.4445 39.6589 74.4297 38.542 74.6516C38.3868 74.6823 38.228 74.6986 38.0638 74.6986C36.7195 74.6986 35.6279 73.6085 35.6279 72.2626C35.6279 71.2503 36.2486 70.3806 37.1291 70.0125C37.416 69.8934 37.7318 69.8267 38.0638 69.8267C39.4099 69.8267 40.4998 70.9183 40.4998 72.2626Z" fill="#4D4D4D"/>
<path d="M66.4759 36.8801C66.2377 36.8801 66.0013 36.8892 65.7668 36.9072L69.1262 47.9294L72.3469 50.2123L71.8763 51.2058L70.3202 51.8466L71.0988 54.4009C73.9335 52.7913 75.8462 49.7437 75.8462 46.2504C75.8462 41.0754 71.6509 36.8801 66.4759 36.8801Z" fill="#6EC6EB"/>
<path d="M69.1262 47.9292L69.6426 49.6232L71.8765 51.2056L72.3471 50.2123L69.1262 47.9292Z" fill="white"/>
<path d="M69.6426 49.6232L70.3202 51.8466L71.8765 51.2056L69.6426 49.6232Z" fill="white"/>
<path d="M12.8701 21.5027C12.5216 21.5027 12.2046 21.6396 11.97 21.8627L12.6519 24.0998C12.7228 24.1117 12.7957 24.118 12.8701 24.118C13.5911 24.118 14.1777 23.5314 14.1777 22.8103C14.1777 22.0893 13.5911 21.5027 12.8701 21.5027ZM9.37025 10.3555C9.06891 10.3555 8.76938 10.3699 8.47527 10.3988L9.83903 14.8724L10.0193 13.9641L10.9697 14.1528L10.4372 16.8351L11.6694 20.8771C12.0182 20.6598 12.4298 20.5341 12.8701 20.5341C14.1254 20.5341 15.1467 21.5554 15.1467 22.8105C15.1467 24.0382 14.1698 25.042 12.9523 25.0857L13.8307 27.9664C16.7539 26.3803 18.7387 23.2858 18.7387 19.7257C18.7387 16.2069 16.7995 13.1414 13.9318 11.5395C12.5819 10.7853 11.0261 10.3555 9.37025 10.3555Z" fill="#FDA589"/>
<path d="M12.8701 20.5337C12.4298 20.5337 12.0182 20.6595 11.6694 20.8767L11.97 21.8626C12.2046 21.6396 12.5218 21.5027 12.8701 21.5027C13.5911 21.5027 14.1777 22.0893 14.1777 22.8103C14.1777 23.5314 13.5911 24.118 12.8701 24.118C12.7957 24.118 12.7228 24.1117 12.6519 24.0997L12.9523 25.0855C14.1696 25.042 15.1467 24.038 15.1467 22.8103C15.1467 21.555 14.1254 20.5337 12.8701 20.5337Z" fill="white"/>
<path d="M10.0195 13.9639L9.83904 14.8722L10.4374 16.8347L10.9699 14.1526L10.0195 13.9639Z" fill="white"/>
<path d="M9.37025 61.7791C9.20605 61.7791 9.04365 61.7827 8.88126 61.7917L9.74123 64.6143H9.91013V65.1686L10.3829 66.7199H11.313V67.8025H10.7127L14.1826 79.1897C16.9126 77.5531 18.7387 74.5632 18.7387 71.1493C18.7387 69.5997 18.3627 68.1381 17.6967 66.8505C16.8504 65.2144 15.5366 63.8595 13.9318 62.9631C12.5819 62.2089 11.0261 61.7791 9.37025 61.7791Z" fill="#ADE18E"/>
<path d="M11.3132 66.7198H10.3829L10.7129 67.8025H11.3132V66.7198Z" fill="white"/>
<path d="M9.91031 64.6143H9.74142L9.91031 65.1686V64.6143Z" fill="white"/>
<path d="M38.0638 69.8267C37.7318 69.8267 37.416 69.8934 37.1291 70.0125L38.542 74.6516C39.6589 74.4297 40.4998 73.4445 40.4998 72.2626C40.4998 70.9183 39.4099 69.8267 38.0638 69.8267Z" fill="#ADADAD"/>
</svg>
