<svg width="283" height="307" viewBox="0 0 283 307" fill="none" xmlns="http://www.w3.org/2000/svg">
<path d="M280.669 270.741H110.333V111.322H280.669V270.741Z" fill="#68E1FD"/>
<path d="M280.669 272.551H110.369C109.894 272.551 109.438 272.362 109.102 272.026C108.765 271.69 108.577 271.234 108.577 270.759V111.322C108.577 110.847 108.765 110.391 109.102 110.055C109.438 109.718 109.894 109.53 110.369 109.53H280.669C281.144 109.53 281.6 109.718 281.937 110.055C282.273 110.391 282.462 110.847 282.462 111.322V270.759C282.462 271.234 282.273 271.69 281.937 272.026C281.6 272.362 281.144 272.551 280.669 272.551ZM112.162 268.966H278.876V113.115H112.162V268.966Z" fill="#093F68"/>
<path d="M280.669 129.302H142.135C141.659 129.302 141.203 129.113 140.867 128.777C140.531 128.441 140.342 127.985 140.342 127.51C140.342 127.034 140.531 126.578 140.867 126.242C141.203 125.906 141.659 125.717 142.135 125.717H280.669C281.144 125.717 281.6 125.906 281.937 126.242C282.273 126.578 282.462 127.034 282.462 127.51C282.462 127.985 282.273 128.441 281.937 128.777C281.6 129.113 281.144 129.302 280.669 129.302Z" fill="#093F68"/>
<path d="M257.275 19.7368V278.664C257.275 281.992 255.953 285.184 253.6 287.537C251.247 289.89 248.055 291.212 244.727 291.212H37.6781C34.3501 291.212 31.1583 289.89 28.8051 287.537C26.4518 285.184 25.1297 281.992 25.1297 278.664V19.7189C25.1297 14.9645 27.0184 10.4049 30.3802 7.04308C33.742 3.68125 38.3016 1.79259 43.056 1.79259H239.295C241.655 1.78551 243.994 2.24455 246.176 3.14338C248.358 4.04221 250.341 5.36313 252.012 7.03035C253.683 8.69756 255.007 10.6783 255.911 12.8588C256.814 15.0393 257.278 17.3766 257.275 19.7368Z" fill="white"/>
<path d="M244.745 292.987H37.6781C33.8746 292.987 30.2269 291.476 27.5374 288.787C24.848 286.097 23.337 282.45 23.337 278.646V19.7189C23.337 14.4891 25.4146 9.47355 29.1126 5.77554C32.8106 2.07752 37.8262 0 43.056 0H239.295C244.525 0 249.54 2.07752 253.238 5.77554C256.936 9.47355 259.014 14.4891 259.014 19.7189V278.664C259.009 282.452 257.506 286.084 254.833 288.768C252.159 291.452 248.533 292.968 244.745 292.987ZM43.0918 3.5494C38.8129 3.5494 34.7092 5.24919 31.6836 8.27484C28.6579 11.3005 26.9582 15.4041 26.9582 19.6831V278.664C26.9582 281.517 28.0913 284.253 30.1084 286.27C32.1255 288.287 34.8613 289.42 37.7139 289.42H244.745C247.597 289.42 250.333 288.287 252.35 286.27C254.367 284.253 255.5 281.517 255.5 278.664V19.7368C255.5 15.4579 253.801 11.3543 250.775 8.32862C247.749 5.30297 243.646 3.60317 239.367 3.60317L43.0918 3.5494Z" fill="#093F68"/>
<path d="M257.275 19.7189V27.6423H25.1476V19.7189C25.1476 14.9645 27.0363 10.4049 30.3981 7.04308C33.76 3.68125 38.3196 1.79259 43.0739 1.79259H239.295C241.654 1.78552 243.991 2.24396 246.172 3.14167C248.353 4.03938 250.335 5.35871 252.006 7.02403C253.676 8.68934 255.001 10.6679 255.905 12.8463C256.81 15.0248 257.275 17.3602 257.275 19.7189Z" fill="white"/>
<path d="M257.275 29.435H25.1476C24.6722 29.435 24.2162 29.2461 23.88 28.9099C23.5438 28.5737 23.355 28.1178 23.355 27.6423V19.7189C23.355 14.4891 25.4325 9.47355 29.1305 5.77554C32.8285 2.07752 37.8441 0 43.0739 0H239.295C244.525 0 249.54 2.07752 253.238 5.77554C256.936 9.47355 259.014 14.4891 259.014 19.7189V27.6423C259.014 28.1086 258.833 28.5566 258.508 28.8913C258.183 29.226 257.741 29.421 257.275 29.435ZM26.9402 25.8497H255.483V19.7189C255.483 15.44 253.783 11.3363 250.757 8.31069C247.731 5.28504 243.628 3.58526 239.349 3.58526H43.1097C38.8308 3.58526 34.7272 5.28504 31.7015 8.31069C28.6759 11.3363 26.9761 15.44 26.9761 19.7189L26.9402 25.8497Z" fill="#093F68"/>
<path d="M25.1476 27.6423H257.275V96.1566H25.1476V27.6423Z" fill="#68E1FD"/>
<path d="M257.275 97.9492H25.1476C24.6722 97.9492 24.2162 97.7603 23.88 97.4242C23.5438 97.088 23.355 96.632 23.355 96.1566V27.6423C23.355 27.1669 23.5438 26.7109 23.88 26.3747C24.2162 26.0385 24.6722 25.8497 25.1476 25.8497H257.275C257.751 25.8497 258.207 26.0385 258.543 26.3747C258.879 26.7109 259.068 27.1669 259.068 27.6423V96.1566C259.068 96.632 258.879 97.088 258.543 97.4242C258.207 97.7603 257.751 97.9492 257.275 97.9492ZM26.9402 94.364H255.483V29.4349H26.9402V94.364Z" fill="#093F68"/>
<path d="M84.2506 167.718C98.1706 167.718 109.455 156.434 109.455 142.514C109.455 128.594 98.1706 117.31 84.2506 117.31C70.3306 117.31 59.0462 128.594 59.0462 142.514C59.0462 156.434 70.3306 167.718 84.2506 167.718Z" fill="#F56132"/>
<path d="M84.2506 169.439C78.9065 169.439 73.6827 167.853 69.2407 164.882C64.7988 161.911 61.3386 157.688 59.2985 152.749C57.2583 147.809 56.73 142.376 57.7805 137.136C58.8309 131.896 61.4128 127.086 65.1992 123.315C68.9855 119.543 73.806 116.981 79.05 115.951C84.294 114.922 89.7255 115.472 94.6566 117.531C99.5878 119.591 103.797 123.068 106.75 127.522C109.704 131.976 111.269 137.206 111.248 142.55C111.21 149.688 108.35 156.522 103.292 161.56C98.2342 166.597 91.3892 169.43 84.2506 169.439ZM84.2506 119.049C79.6156 119.049 75.085 120.424 71.2326 123.002C67.3803 125.579 64.3796 129.242 62.6109 133.526C60.8421 137.81 60.3848 142.523 61.2969 147.067C62.209 151.612 64.4494 155.783 67.7344 159.053C71.0194 162.323 75.201 164.544 79.7495 165.435C84.298 166.326 89.0086 165.847 93.2846 164.059C97.5607 162.27 101.21 159.253 103.769 155.389C106.329 151.525 107.684 146.988 107.662 142.353C107.61 136.176 105.121 130.27 100.737 125.919C96.3526 121.568 90.4274 119.125 84.2506 119.12V119.049Z" fill="#093F68"/>
<path d="M223.359 125.61H135.323C134.847 125.61 134.391 125.421 134.055 125.084C133.719 124.748 133.53 124.292 133.53 123.817C133.53 123.341 133.719 122.885 134.055 122.549C134.391 122.213 134.847 122.024 135.323 122.024H223.359C223.834 122.024 224.29 122.213 224.626 122.549C224.962 122.885 225.151 123.341 225.151 123.817C225.151 124.292 224.962 124.748 224.626 125.084C224.29 125.421 223.834 125.61 223.359 125.61Z" fill="#DFEAEF"/>
<path d="M223.359 144.343H135.323C134.847 144.343 134.391 144.154 134.055 143.817C133.719 143.481 133.53 143.025 133.53 142.55C133.53 142.074 133.719 141.618 134.055 141.282C134.391 140.946 134.847 140.757 135.323 140.757H223.359C223.834 140.757 224.29 140.946 224.626 141.282C224.962 141.618 225.151 142.074 225.151 142.55C225.151 143.025 224.962 143.481 224.626 143.817C224.29 144.154 223.834 144.343 223.359 144.343Z" fill="#DFEAEF"/>
<path d="M195.501 163.004H179.368C178.892 163.004 178.436 162.815 178.1 162.479C177.764 162.143 177.575 161.687 177.575 161.211C177.575 160.736 177.764 160.28 178.1 159.944C178.436 159.607 178.892 159.418 179.368 159.418H195.501C195.977 159.418 196.433 159.607 196.769 159.944C197.105 160.28 197.294 160.736 197.294 161.211C197.294 161.687 197.105 162.143 196.769 162.479C196.433 162.815 195.977 163.004 195.501 163.004Z" fill="#DFEAEF"/>
<path d="M165.403 163.004H135.323C134.847 163.004 134.391 162.815 134.055 162.479C133.719 162.143 133.53 161.687 133.53 161.211C133.53 160.736 133.719 160.28 134.055 159.944C134.391 159.607 134.847 159.418 135.323 159.418H165.403C165.878 159.418 166.334 159.607 166.67 159.944C167.007 160.28 167.196 160.736 167.196 161.211C167.196 161.687 167.007 162.143 166.67 162.479C166.334 162.815 165.878 163.004 165.403 163.004Z" fill="#DFEAEF"/>
<path d="M198.172 248.781C212.092 248.781 223.377 237.497 223.377 223.577C223.377 209.657 212.092 198.372 198.172 198.372C184.252 198.372 172.968 209.657 172.968 223.577C172.968 237.497 184.252 248.781 198.172 248.781Z" fill="#FFBC0E"/>
<path d="M198.172 250.574C192.832 250.577 187.611 248.997 183.169 246.033C178.727 243.068 175.264 238.853 173.217 233.92C171.171 228.988 170.634 223.559 171.674 218.321C172.713 213.083 175.283 208.271 179.058 204.493C182.833 200.716 187.643 198.143 192.881 197.1C198.118 196.057 203.547 196.59 208.481 198.633C213.415 200.676 217.633 204.136 220.6 208.576C223.567 213.016 225.151 218.236 225.151 223.577C225.142 230.731 222.297 237.589 217.24 242.65C212.183 247.71 205.326 250.559 198.172 250.574ZM198.172 200.165C193.541 200.161 189.013 201.531 185.16 204.102C181.308 206.672 178.305 210.327 176.53 214.605C174.755 218.883 174.289 223.59 175.19 228.133C176.091 232.676 178.32 236.849 181.593 240.125C184.867 243.401 189.038 245.632 193.58 246.537C198.122 247.442 202.83 246.979 207.109 245.208C211.388 243.437 215.046 240.436 217.619 236.585C220.192 232.735 221.566 228.208 221.566 223.577C221.557 217.374 219.089 211.427 214.705 207.039C210.32 202.651 204.375 200.179 198.172 200.165Z" fill="#093F68"/>
<path d="M147.1 206.672H59.0462C58.5707 206.672 58.1148 206.483 57.7786 206.147C57.4424 205.811 57.2535 205.355 57.2535 204.88C57.2535 204.404 57.4424 203.948 57.7786 203.612C58.1148 203.276 58.5707 203.087 59.0462 203.087H147.1C147.576 203.087 148.032 203.276 148.368 203.612C148.704 203.948 148.893 204.404 148.893 204.88C148.893 205.355 148.704 205.811 148.368 206.147C148.032 206.483 147.576 206.672 147.1 206.672Z" fill="#DFEAEF"/>
<path d="M147.1 225.369H59.0462C58.5707 225.369 58.1148 225.18 57.7786 224.844C57.4424 224.508 57.2535 224.052 57.2535 223.577C57.2535 223.101 57.4424 222.645 57.7786 222.309C58.1148 221.973 58.5707 221.784 59.0462 221.784H147.1C147.576 221.784 148.032 221.973 148.368 222.309C148.704 222.645 148.893 223.101 148.893 223.577C148.893 224.052 148.704 224.508 148.368 224.844C148.032 225.18 147.576 225.369 147.1 225.369Z" fill="#DFEAEF"/>
<path d="M123.886 244.066H59.0462C58.5707 244.066 58.1148 243.878 57.7786 243.541C57.4424 243.205 57.2535 242.749 57.2535 242.274C57.2535 241.798 57.4424 241.342 57.7786 241.006C58.1148 240.67 58.5707 240.481 59.0462 240.481H123.886C124.361 240.481 124.817 240.67 125.153 241.006C125.489 241.342 125.678 241.798 125.678 242.274C125.678 242.749 125.489 243.205 125.153 243.541C124.817 243.878 124.361 244.066 123.886 244.066Z" fill="#DFEAEF"/>
<path d="M25.1476 96.1566L103.073 39.5992L150.363 79.4672L191.593 45.9272L257.275 96.1566H25.1476Z" fill="#70CC40"/>
<path d="M257.275 97.9493H25.1476C24.7683 97.9506 24.3982 97.8316 24.0908 97.6093C23.7834 97.387 23.5544 97.0729 23.4368 96.7122C23.3193 96.3515 23.3191 95.9628 23.4365 95.6021C23.5539 95.2413 23.7827 94.9271 24.09 94.7046L102.033 38.1472C102.348 37.9015 102.736 37.7681 103.136 37.7681C103.535 37.7681 103.923 37.9015 104.238 38.1472L150.381 77.0472L190.464 44.4393C190.78 44.1892 191.172 44.0532 191.575 44.0532C191.979 44.0532 192.37 44.1892 192.687 44.4393L258.369 94.6329C258.664 94.8617 258.88 95.1769 258.987 95.5344C259.094 95.892 259.087 96.274 258.966 96.6273C258.846 96.9806 258.618 97.2875 258.315 97.5052C258.012 97.7229 257.648 97.8405 257.275 97.8417V97.9493ZM30.6689 94.364H251.987L191.629 48.2038L151.492 80.8655C151.17 81.1338 150.764 81.2807 150.345 81.2807C149.926 81.2807 149.52 81.1338 149.198 80.8655L103.001 41.8758L30.6689 94.364Z" fill="#093F68"/>
<path d="M160.545 89.7748C160.124 89.7706 159.718 89.6183 159.398 89.3446L149.215 80.8476C149.034 80.6969 148.884 80.512 148.775 80.3034C148.665 80.0949 148.597 79.8667 148.575 79.632C148.554 79.3973 148.579 79.1606 148.648 78.9355C148.718 78.7104 148.832 78.5012 148.982 78.3199C149.133 78.1387 149.318 77.9889 149.527 77.879C149.735 77.7692 149.963 77.7016 150.198 77.6799C150.433 77.6583 150.669 77.6831 150.894 77.7529C151.12 77.8228 151.329 77.9362 151.51 78.0869L161.71 86.6019C161.89 86.7536 162.039 86.9394 162.147 87.1486C162.256 87.3578 162.322 87.5864 162.342 87.8211C162.362 88.0559 162.335 88.2922 162.264 88.5168C162.192 88.7413 162.077 88.9495 161.925 89.1295C161.757 89.3319 161.546 89.4946 161.307 89.6061C161.068 89.7177 160.808 89.7753 160.545 89.7748Z" fill="#093F68"/>
<path d="M43.8268 17.1196C45.8267 17.1196 47.4479 15.4984 47.4479 13.4985C47.4479 11.4986 45.8267 9.87741 43.8268 9.87741C41.8269 9.87741 40.2057 11.4986 40.2057 13.4985C40.2057 15.4984 41.8269 17.1196 43.8268 17.1196Z" fill="#F56132"/>
<path d="M43.8268 9.89529C44.5359 9.89529 45.229 10.1056 45.8186 10.4995C46.4082 10.8935 46.8678 11.4534 47.1391 12.1085C47.4105 12.7637 47.4815 13.4845 47.3431 14.18C47.2048 14.8755 46.8634 15.5143 46.362 16.0157C45.8605 16.5171 45.2217 16.8586 44.5262 16.9969C43.8308 17.1353 43.1099 17.0642 42.4548 16.7929C41.7997 16.5215 41.2397 16.062 40.8457 15.4724C40.4518 14.8828 40.2415 14.1896 40.2415 13.4805C40.2415 12.5297 40.6193 11.6178 41.2916 10.9454C41.964 10.273 42.8759 9.89529 43.8268 9.89529ZM43.8268 7.20635C42.573 7.20639 41.3474 7.57892 40.3056 8.27666C39.2639 8.97439 38.4529 9.96588 37.9755 11.1253C37.4982 12.2847 37.3761 13.5598 37.6246 14.7888C37.8732 16.0177 38.4812 17.1451 39.3716 18.0279C40.262 18.9107 41.3945 19.5091 42.6255 19.7472C43.8566 19.9853 45.1306 19.8523 46.2859 19.365C47.4412 18.8778 48.4257 18.0584 49.1145 17.0107C49.8034 15.963 50.1654 14.7343 50.1548 13.4805C50.15 11.8054 49.4812 10.2004 48.295 9.01758C47.1088 7.83473 45.502 7.17049 43.8268 7.1705V7.20635Z" fill="#093F68"/>
<path d="M59.0462 17.1196C61.0461 17.1196 62.6673 15.4984 62.6673 13.4985C62.6673 11.4986 61.0461 9.87741 59.0462 9.87741C57.0463 9.87741 55.4251 11.4986 55.4251 13.4985C55.4251 15.4984 57.0463 17.1196 59.0462 17.1196Z" fill="#FFBC0E"/>
<path d="M59.0462 9.89529C59.7553 9.89529 60.4485 10.1056 61.0381 10.4995C61.6277 10.8935 62.0872 11.4534 62.3586 12.1085C62.63 12.7637 62.701 13.4845 62.5626 14.18C62.4243 14.8755 62.0828 15.5143 61.5814 16.0157C61.08 16.5171 60.4412 16.8586 59.7457 16.9969C59.0502 17.1353 58.3293 17.0642 57.6742 16.7929C57.0191 16.5215 56.4592 16.062 56.0652 15.4724C55.6713 14.8828 55.461 14.1896 55.461 13.4805C55.461 12.5297 55.8387 11.6178 56.5111 10.9454C57.1834 10.273 58.0954 9.89529 59.0462 9.89529ZM59.0462 7.20635C57.7924 7.20639 56.5669 7.57892 55.5251 8.27666C54.4833 8.97439 53.6723 9.96588 53.195 11.1253C52.7177 12.2847 52.5955 13.5598 52.8441 14.7888C53.0926 16.0177 53.7007 17.1451 54.5911 18.0279C55.4814 18.9107 56.614 19.5091 57.845 19.7472C59.0761 19.9853 60.3501 19.8523 61.5054 19.365C62.6607 18.8778 63.6452 18.0584 64.334 17.0107C65.0228 15.963 65.3849 14.7343 65.3742 13.4805C65.3695 11.8054 64.7007 10.2004 63.5145 9.01758C62.3283 7.83473 60.7214 7.17049 59.0462 7.1705V7.20635Z" fill="#093F68"/>
<path d="M74.2656 17.1196C76.2655 17.1196 77.8868 15.4984 77.8868 13.4985C77.8868 11.4986 76.2655 9.87741 74.2656 9.87741C72.2658 9.87741 70.6445 11.4986 70.6445 13.4985C70.6445 15.4984 72.2658 17.1196 74.2656 17.1196Z" fill="#70CC40"/>
<path d="M74.2656 9.89529C74.9747 9.89529 75.6679 10.1056 76.2575 10.4995C76.8471 10.8935 77.3066 11.4534 77.578 12.1085C77.8493 12.7637 77.9203 13.4845 77.782 14.18C77.6437 14.8755 77.3022 15.5143 76.8008 16.0157C76.2994 16.5171 75.6605 16.8586 74.9651 16.9969C74.2696 17.1353 73.5487 17.0642 72.8936 16.7929C72.2385 16.5215 71.6785 16.062 71.2846 15.4724C70.8906 14.8828 70.6804 14.1896 70.6804 13.4805C70.6804 12.5297 71.0581 11.6178 71.7304 10.9454C72.4028 10.273 73.3147 9.89529 74.2656 9.89529ZM74.2656 7.20635C73.0118 7.20639 71.7862 7.57892 70.7444 8.27666C69.7027 8.97439 68.8917 9.96588 68.4143 11.1253C67.937 12.2847 67.8149 13.5598 68.0635 14.7888C68.312 16.0177 68.92 17.1451 69.8104 18.0279C70.7008 18.9107 71.8334 19.5091 73.0644 19.7472C74.2954 19.9853 75.5694 19.8523 76.7247 19.365C77.88 18.8778 78.8646 18.0584 79.5534 17.0107C80.2422 15.963 80.6042 14.7343 80.5936 13.4805C80.5888 11.8054 79.92 10.2004 78.7338 9.01758C77.5476 7.83473 75.9408 7.17049 74.2656 7.1705V7.20635Z" fill="#093F68"/>
<path d="M10.7886 147.515L46.928 137.925C47.1362 137.871 47.3548 137.873 47.5621 137.93C47.7695 137.986 47.9585 138.096 48.1105 138.248C48.2625 138.4 48.3722 138.589 48.4289 138.797C48.4857 139.004 48.4873 139.222 48.4338 139.431L38.8433 175.57C38.7914 175.782 38.6835 175.976 38.5311 176.132C38.3787 176.288 38.1872 176.4 37.9766 176.457C37.7661 176.513 37.5442 176.513 37.334 176.455C37.1238 176.396 36.9331 176.283 36.7818 176.126L28.948 168.292L13.0474 184.175C12.9332 184.299 12.7946 184.397 12.6403 184.465C12.4861 184.533 12.3195 184.567 12.151 184.567C11.9826 184.567 11.816 184.533 11.6617 184.465C11.5075 184.397 11.3689 184.299 11.2547 184.175L2.13025 175.05C2.0064 174.936 1.90756 174.797 1.83995 174.643C1.77234 174.489 1.73743 174.322 1.73743 174.154C1.73743 173.985 1.77234 173.819 1.83995 173.665C1.90756 173.51 2.0064 173.372 2.13025 173.258L18.0129 157.357L10.1791 149.523C10.0361 149.367 9.93615 149.176 9.8892 148.97C9.84226 148.763 9.84991 148.548 9.91143 148.346C9.97294 148.143 10.0862 147.96 10.24 147.814C10.3938 147.669 10.5829 147.566 10.7886 147.515Z" fill="white"/>
<path d="M12.169 186.344C11.7717 186.343 11.3785 186.264 11.0123 186.11C10.646 185.956 10.3141 185.731 10.0357 185.447L0.893333 176.305C0.610406 176.026 0.38572 175.694 0.232353 175.328C0.0789864 174.962 0 174.569 0 174.172C0 173.775 0.0789864 173.382 0.232353 173.015C0.38572 172.649 0.610406 172.317 0.893333 172.039L15.5212 157.411L8.94223 150.832C8.56422 150.458 8.29209 149.99 8.1535 149.476C8.01491 148.963 8.01482 148.422 8.15324 147.908C8.29166 147.394 8.56366 146.927 8.94155 146.552C9.31944 146.178 9.78975 145.91 10.3046 145.777L46.444 136.204C46.9548 136.072 47.4912 136.075 48.0003 136.213C48.5093 136.352 48.9734 136.621 49.3464 136.994C49.7195 137.367 49.9887 137.831 50.1273 138.341C50.266 138.85 50.2692 139.386 50.1368 139.897L40.5642 176.036C40.4306 176.551 40.163 177.021 39.7886 177.399C39.4142 177.777 38.9464 178.049 38.4328 178.188C37.9192 178.326 37.3781 178.326 36.8645 178.187C36.351 178.049 35.8833 177.777 35.509 177.399L28.9301 170.82L14.3022 185.447C14.0239 185.731 13.6919 185.956 13.3257 186.11C12.9594 186.264 12.5662 186.343 12.169 186.344ZM3.81531 174.172L12.169 182.525L27.6573 167.019C27.8239 166.851 28.0222 166.718 28.2406 166.627C28.4591 166.536 28.6934 166.489 28.9301 166.489C29.1667 166.489 29.401 166.536 29.6194 166.627C29.8379 166.718 30.0362 166.851 30.2028 167.019L37.3733 174.19L46.444 139.933L12.169 148.985L19.3395 156.156C19.5056 156.323 19.6371 156.522 19.7263 156.74C19.8155 156.959 19.8607 157.193 19.8593 157.429C19.8607 157.665 19.8155 157.898 19.7263 158.117C19.6371 158.335 19.5056 158.534 19.3395 158.701L3.81531 174.172Z" fill="#093F68"/>
<path d="M94.0384 232.074H16.8298C14.523 232.074 12.653 233.944 12.653 236.251V300.66C12.653 302.966 14.523 304.837 16.8298 304.837H94.0384C96.3452 304.837 98.2152 302.966 98.2152 300.66V236.251C98.2152 233.944 96.3452 232.074 94.0384 232.074Z" fill="#68E1FD"/>
<path d="M94.0204 306.647H16.8298C15.2449 306.642 13.7266 306.009 12.6076 304.887C11.4886 303.765 10.8603 302.245 10.8603 300.66V236.268C10.8603 234.684 11.4886 233.163 12.6076 232.041C13.7266 230.919 15.2449 230.286 16.8298 230.281H94.0204C95.6069 230.286 97.127 230.918 98.2489 232.04C99.3707 233.162 100.003 234.682 100.008 236.268V300.66C100.003 302.246 99.3707 303.766 98.2489 304.888C97.127 306.01 95.6069 306.642 94.0204 306.647ZM16.8298 233.866C16.5152 233.866 16.2036 233.929 15.9132 234.05C15.6228 234.17 15.3591 234.348 15.1375 234.571C14.9159 234.794 14.7406 235.059 14.6219 235.351C14.5031 235.642 14.4432 235.954 14.4456 236.268V300.66C14.4432 300.974 14.5031 301.286 14.6219 301.578C14.7406 301.869 14.9159 302.134 15.1375 302.357C15.3591 302.58 15.6228 302.758 15.9132 302.879C16.2036 303 16.5152 303.062 16.8298 303.062H94.0204C94.6574 303.062 95.2684 302.809 95.7189 302.358C96.1694 301.908 96.4225 301.297 96.4225 300.66V236.268C96.4225 235.953 96.3603 235.641 96.2396 235.349C96.1189 235.058 95.942 234.793 95.7189 234.57C95.4959 234.347 95.231 234.17 94.9396 234.049C94.6482 233.928 94.3358 233.866 94.0204 233.866H16.8298Z" fill="#093F68"/>
<path d="M96.8707 247.723H12.6171C12.1417 247.723 11.6857 247.535 11.3495 247.198C11.0133 246.862 10.8245 246.406 10.8245 245.931C10.8245 245.455 11.0133 244.999 11.3495 244.663C11.6857 244.327 12.1417 244.138 12.6171 244.138H96.8707C97.3461 244.138 97.8021 244.327 98.1382 244.663C98.4744 244.999 98.6633 245.455 98.6633 245.931C98.6633 246.406 98.4744 246.862 98.1382 247.198C97.8021 247.535 97.3461 247.723 96.8707 247.723Z" fill="#093F68"/>
<path d="M82.8702 266.672H27.9799C27.5045 266.672 27.0485 266.483 26.7124 266.146C26.3762 265.81 26.1873 265.354 26.1873 264.879C26.1873 264.403 26.3762 263.947 26.7124 263.611C27.0485 263.275 27.5045 263.086 27.9799 263.086H82.8702C83.3457 263.086 83.8016 263.275 84.1378 263.611C84.474 263.947 84.6629 264.403 84.6629 264.879C84.6629 265.354 84.474 265.81 84.1378 266.146C83.8016 266.483 83.3457 266.672 82.8702 266.672Z" fill="white"/>
<path d="M70.2143 284.168H27.9799C27.5045 284.168 27.0485 283.979 26.7124 283.642C26.3762 283.306 26.1873 282.85 26.1873 282.375C26.1873 281.899 26.3762 281.444 26.7124 281.107C27.0485 280.771 27.5045 280.582 27.9799 280.582H70.2143C70.6897 280.582 71.1457 280.771 71.4819 281.107C71.818 281.444 72.0069 281.899 72.0069 282.375C72.0069 282.85 71.818 283.306 71.4819 283.642C71.1457 283.979 70.6897 284.168 70.2143 284.168Z" fill="white"/>
</svg>
