<svg width="800" height="800" viewBox="0 0 800 800" fill="none" xmlns="http://www.w3.org/2000/svg">
<path d="M750 125H620.7L535.35 39.65C525.975 30.275 513.275 25 500 25H300C286.725 25 274.025 30.275 264.65 39.65L179.3 125H50C22.3625 125 0 147.363 0 175V725C0 752.637 22.3625 775 50 775H750C777.637 775 800 752.637 800 725V175C800 147.363 777.637 125 750 125ZM400 625C289.55 625 200 535.45 200 425C200 314.55 289.55 225 400 225C510.45 225 600 314.55 600 425C600 535.45 510.45 625 400 625Z" fill="white"/>
<path d="M400 525C455.228 525 500 480.228 500 425C500 369.772 455.228 325 400 325C344.772 325 300 369.772 300 425C300 480.228 344.772 525 400 525Z" fill="white"/>
</svg>
