<svg width="800" height="800" viewBox="0 0 800 800" fill="none" xmlns="http://www.w3.org/2000/svg">
<path d="M633.333 325.935V540C633.333 596.003 633.333 624.007 622.433 645.397C612.847 664.213 597.55 679.513 578.733 689.1C557.34 700 529.34 700 473.333 700H326.667C270.661 700 242.659 700 221.268 689.1C202.451 679.513 187.153 664.213 177.566 645.397C166.667 624.007 166.667 596.003 166.667 540V325.913M700 400L518.893 198.798C477.703 153.039 457.11 130.159 432.853 121.713C411.553 114.294 388.367 114.296 367.063 121.718C342.81 130.168 322.22 153.05 281.038 198.815L100 400M466.667 400C466.667 436.817 436.82 466.667 400 466.667C363.18 466.667 333.333 436.817 333.333 400C333.333 363.18 363.18 333.332 400 333.332C436.82 333.332 466.667 363.18 466.667 400Z" stroke="white" stroke-width="66.6667" stroke-linecap="round" stroke-linejoin="round"/>
</svg>
