<svg width="800" height="800" viewBox="0 0 800 800" fill="none" xmlns="http://www.w3.org/2000/svg">
<g clip-path="url(#clip0_50_2)">
<path d="M400 0C179.063 0 0 179.009 0 400C0 620.883 179.063 799.973 400 799.973C620.937 799.973 800 620.883 800 400C799.973 179.009 620.91 0 400 0ZM400 734.724C215.06 734.724 65.195 584.886 65.195 399.973C65.195 215.033 215.06 65.1408 400 65.1408C584.886 65.1408 734.751 215.06 734.751 399.973C734.751 584.886 584.886 734.724 400 734.724Z" fill="#2590EB"/>
<path d="M389.626 523.754C353.386 523.754 327.627 549.513 327.627 587.134C327.627 623.321 352.709 650.488 389.626 650.488C427.925 650.488 452.302 623.321 452.302 587.134C451.571 549.513 427.167 523.754 389.626 523.754Z" fill="#2590EB"/>
<path d="M399.296 165.005C349.892 165.005 308.83 178.9 283.018 193.526L306.717 269.475C324.811 256.961 352.682 248.564 375.65 248.564C410.455 249.296 426.544 266.008 426.544 290.357C426.544 313.38 408.397 336.322 386.078 363.516C354.767 400.46 342.904 436.674 345.016 472.183L345.694 490.303H438.326V477.763C437.649 446.398 448.808 419.204 473.836 390.683C500.352 361.43 533.722 326.598 533.722 273.646C533.722 215.818 491.306 165.005 399.296 165.005Z" fill="#2590EB"/>
</g>
<defs>
<clipPath id="clip0_50_2">
<rect width="800" height="800" fill="white"/>
</clipPath>
</defs>
</svg>
