<svg width="800" height="800" viewBox="0 0 800 800" fill="none" xmlns="http://www.w3.org/2000/svg">
<g clip-path="url(#clip0_26_235)">
<path d="M400 775C607.107 775 775 607.107 775 400C775 192.893 607.107 25 400 25C192.893 25 25 192.893 25 400C25 607.107 192.893 775 400 775Z" fill="#F9EBB2"/>
<path d="M400 0C179.437 0 0 179.437 0 400C0 620.563 179.437 800 400 800C620.563 800 800 620.563 800 400C800 179.437 620.563 0 400 0ZM400 775C193.225 775 25 606.775 25 400C25 193.225 193.225 25 400 25C606.775 25 775 193.225 775 400C775 606.775 606.775 775 400 775Z" fill="#394240"/>
<path d="M437.45 350.262L437.5 350.1V212.5C437.5 191.825 420.675 175 400 175C379.325 175 362.5 191.825 362.5 212.5V350L362.55 350.262C347.437 361.7 337.5 379.638 337.5 400C337.5 434.462 365.538 462.5 400 462.5C434.462 462.5 462.5 434.462 462.5 400C462.5 379.638 452.562 361.7 437.45 350.262ZM387.5 212.5C387.5 205.6 393.1 200 400 200C406.9 200 412.5 205.6 412.5 212.5V338.775C408.462 337.937 404.287 337.5 400 337.5C395.713 337.5 391.538 337.937 387.5 338.775V212.5ZM400 437.5C379.325 437.5 362.5 420.675 362.5 400C362.5 379.325 379.325 362.5 400 362.5C420.675 362.5 437.5 379.325 437.5 400C437.5 420.675 420.675 437.5 400 437.5Z" fill="#394240"/>
<path d="M400.375 387.5H400.25C393.35 387.5 387.825 393.088 387.825 400C387.825 406.912 393.475 412.5 400.387 412.5C407.287 412.5 412.887 406.912 412.887 400C412.887 393.088 407.275 387.5 400.375 387.5Z" fill="#394240"/>
<path d="M400 50C207.012 50 50 207.012 50 400C50 459.225 64.875 515.013 90.9625 563.95C94.8875 571.325 99.0375 578.562 103.475 585.612L178.912 542.05C184.9 538.612 186.937 530.975 183.487 525C180.037 519.012 172.4 516.95 166.4 520.425L112.637 551.463C103.337 533.9 95.6375 515.363 89.625 496.088L113.425 489.712C120.113 487.9 124.075 481.112 122.263 474.4C120.475 467.737 113.625 463.775 106.95 465.562L83.2 471.925C78.8125 452.7 76.1625 432.838 75.375 412.475H137.5C144.425 412.475 149.987 406.888 150 399.988C150 393.063 144.425 387.475 137.487 387.475H75.3125C76.0875 367.125 78.75 347.25 83.125 328.025L106.963 334.413C113.65 336.2 120.487 332.287 122.275 325.575C124.075 318.925 120.1 312.062 113.437 310.262L89.5125 303.875C95.5 284.575 103.3 266.087 112.6 248.487L166.437 279.562C172.425 283.012 180.038 280.962 183.5 275C186.95 269.012 184.912 261.375 178.912 257.912L125.15 226.887C135.863 209.925 148.087 194.012 161.662 179.35L179.025 196.713C183.937 201.6 191.8 201.625 196.7 196.713C201.588 191.838 201.588 183.925 196.7 179.037L179.338 161.675C194 148.088 209.925 135.875 226.9 125.137L257.938 178.925C261.388 184.913 269.025 186.938 275 183.5C280.988 180.038 283.037 172.4 279.562 166.4L248.5 112.6C266.075 103.3 284.575 95.5125 303.863 89.525L310.275 113.45C312.088 120.125 318.888 124.1 325.588 122.287C332.25 120.5 336.225 113.662 334.425 106.975L328.025 83.125C347.263 78.75 367.15 76.0875 387.512 75.3125L387.5 137.513C387.5 144.413 393.1 149.987 400 150C406.912 149.987 412.5 144.413 412.5 137.475V75.3125C432.85 76.0875 452.725 78.75 471.962 83.125L465.562 106.975C463.775 113.65 467.712 120.5 474.4 122.287C481.062 124.087 487.925 120.125 489.712 113.45L496.125 89.5125C515.425 95.5 533.925 103.3 551.525 112.6L520.425 166.437C516.987 172.412 519.05 180.05 525.012 183.487C531 186.937 538.638 184.9 542.1 178.9L573.125 125.15C590.087 135.863 606.012 148.088 620.662 161.675L603.288 179.037C598.4 183.925 598.388 191.825 603.288 196.713C608.175 201.6 616.075 201.6 620.962 196.713L638.338 179.35C651.925 194.012 664.137 209.912 674.862 226.887L621.063 257.925C615.088 261.375 613.062 269.038 616.512 274.988C619.962 280.975 627.612 283.025 633.612 279.55L687.413 248.5C696.713 266.075 704.5 284.575 710.5 303.875L686.55 310.287C679.887 312.087 675.912 318.913 677.712 325.6C679.5 332.263 686.35 336.237 693.025 334.437L716.888 328.038C721.263 347.287 723.925 367.15 724.7 387.512H662.5C655.588 387.512 650 393.1 650 400.012C650 406.925 655.588 412.512 662.5 412.512H724.613C723.838 432.875 721.175 452.737 716.787 471.962L693.013 465.588C686.325 463.825 679.525 467.725 677.7 474.425C675.912 481.1 679.925 487.95 686.538 489.738L710.362 496.125C704.362 515.387 696.65 533.912 687.337 551.487L633.575 520.45C627.588 517 619.95 519.05 616.5 525.025C613.05 531 615.088 538.638 621.075 542.1L696.513 585.65C700.938 578.613 705.088 571.362 709.013 564C735.125 515.025 750 459.237 750 400C750 207.012 592.988 50 400 50Z" fill="#394240"/>
<path d="M400 362.5C379.325 362.5 362.5 379.325 362.5 400C362.5 420.675 379.325 437.5 400 437.5C420.675 437.5 437.5 420.675 437.5 400C437.5 379.325 420.675 362.5 400 362.5ZM400.375 412.5C393.462 412.5 387.812 406.912 387.812 400C387.812 393.088 393.338 387.5 400.238 387.5H400.375C407.275 387.5 412.875 393.088 412.875 400C412.875 406.912 407.275 412.5 400.375 412.5Z" fill="#B4CCB9"/>
<path d="M412.5 338.775V212.5C412.5 205.6 406.9 200 400 200C393.1 200 387.5 205.6 387.5 212.5V338.775C391.538 337.937 395.713 337.5 400 337.5C404.287 337.5 408.462 337.937 412.5 338.775Z" fill="#F76D57"/>
</g>
<defs>
<clipPath id="clip0_26_235">
<rect width="800" height="800" fill="white"/>
</clipPath>
</defs>
</svg>
