<svg width="162" height="129" viewBox="0 0 162 129" fill="none" xmlns="http://www.w3.org/2000/svg">
<path d="M161.578 33.4813C161.578 26.6185 155.964 21.0181 149.114 21.0181H18.0635C11.2007 21.0181 5.60035 26.6319 5.60035 33.4813L0 84.8111H161.578V33.4813Z" fill="url(#paint0_linear_23_201)"/>
<path d="M0 84.8111V99.8797C0 106.742 5.61378 112.343 12.4631 112.343H149.101C155.964 112.343 161.564 106.729 161.564 99.8797V84.8111H0Z" fill="#66BB6A"/>
<path opacity="0.2" d="M19.5139 25.0472L150.457 25.7187C155.091 25.7187 157.831 28.5658 157.831 33.1186L157.293 84.8111V99.3022C157.293 104.459 152.835 108.22 150.444 108.22L13.8061 108.368C5.68093 108.368 4.00217 103.251 4.00217 98.9799L4.05589 84.7037L9.60252 33.5484L9.62938 33.4141C10.1263 26.4976 15.2835 25.0472 19.5139 25.0472ZM19.5274 21.0181C11.9797 21.0181 6.20471 24.9397 5.61378 33.1052L0.0402903 84.4754L0 98.9664C0 105.829 3.78729 112.397 13.8599 112.397L150.431 112.249C155.239 112.249 161.309 106.514 161.309 99.3022V84.8111L161.846 33.1455C161.846 26.2827 157.226 21.6896 150.377 21.6896L19.5274 21.0181Z" fill="#424242"/>
<path d="M34.9451 63.1081H15.3506C13.1347 63.1081 11.523 61.3487 11.7648 59.1865L14.1151 38.3564C14.3568 36.1942 16.3579 34.4348 18.5873 34.4348H35.9524C38.1684 34.4348 39.78 36.1942 39.5382 38.3564L39.4039 59.1865C39.1622 61.3622 37.1611 63.1081 34.9451 63.1081Z" fill="#546E7A"/>
<path d="M161.578 85.0125H43.1375V5.37204C43.1375 2.40399 45.5414 0 48.5095 0H156.205C159.174 0 161.578 2.40399 161.578 5.37204V85.0125Z" fill="url(#paint1_linear_23_201)"/>
<path opacity="0.2" d="M35.9524 37.1343C36.2747 37.1343 36.5299 37.2283 36.691 37.4163C36.8388 37.5775 36.8925 37.7923 36.8656 38.0609C36.8522 38.1549 36.8522 38.249 36.8522 38.343L36.7179 58.9985C36.5702 59.764 35.7509 60.4221 34.9317 60.4221H15.3506C15.0283 60.4221 14.7731 60.328 14.612 60.14C14.4642 59.9789 14.4105 59.764 14.4374 59.4954L16.7876 38.6653C16.8816 37.8595 17.7412 37.1343 18.5873 37.1343H35.9524ZM35.9524 34.4482H18.5873C16.3713 34.4482 14.3702 36.2076 14.115 38.3698L11.7648 59.1999C11.523 61.3622 13.1212 63.1215 15.3506 63.1215H34.9451C37.1611 63.1215 39.1622 61.3622 39.4174 59.1999L39.5517 38.3698C39.78 36.2076 38.1818 34.4482 35.9524 34.4482Z" fill="#424242"/>
<path d="M97.3011 0H112.464V31.7622H97.3011V0Z" fill="#6D4C41"/>
<path d="M97.3011 54.3785H112.464V85.0125H97.3011V54.3785Z" fill="#6D4C41"/>
<path opacity="0.2" d="M156.205 4.02903C156.944 4.02903 157.548 4.63338 157.548 5.37204V80.9835H47.1665V5.37204C47.1665 4.63338 47.7708 4.02903 48.5095 4.02903H156.205ZM156.205 0H48.5095C45.5414 0 43.1375 2.40399 43.1375 5.37204V85.0125H161.578V5.37204C161.578 2.40399 159.174 0 156.205 0Z" fill="#424242"/>
<path d="M35.0794 128.459C45.4636 128.459 53.8816 120.041 53.8816 109.657C53.8816 99.2727 45.4636 90.8547 35.0794 90.8547C24.6953 90.8547 16.2773 99.2727 16.2773 109.657C16.2773 120.041 24.6953 128.459 35.0794 128.459Z" fill="#4E342E"/>
<path opacity="0.2" d="M35.0794 93.5407C43.9702 93.5407 51.1955 100.766 51.1955 109.657C51.1955 118.548 43.9702 125.773 35.0794 125.773C26.1887 125.773 18.9633 118.548 18.9633 109.657C18.9633 100.766 26.1887 93.5407 35.0794 93.5407ZM35.0794 90.8547C24.698 90.8547 16.2773 99.2753 16.2773 109.657C16.2773 120.038 24.698 128.459 35.0794 128.459C45.4609 128.459 53.8816 120.038 53.8816 109.657C53.8816 99.2753 45.4609 90.8547 35.0794 90.8547Z" fill="#EEEEEE"/>
<path d="M35.0794 117.715C39.5298 117.715 43.1375 114.107 43.1375 109.657C43.1375 105.206 39.5298 101.599 35.0794 101.599C30.6291 101.599 27.0214 105.206 27.0214 109.657C27.0214 114.107 30.6291 117.715 35.0794 117.715Z" fill="#BDBDBD"/>
<path d="M131.776 128.459C142.16 128.459 150.578 120.041 150.578 109.657C150.578 99.2727 142.16 90.8547 131.776 90.8547C121.392 90.8547 112.974 99.2727 112.974 109.657C112.974 120.041 121.392 128.459 131.776 128.459Z" fill="#4E342E"/>
<path opacity="0.2" d="M131.776 93.5407C140.667 93.5407 147.892 100.766 147.892 109.657C147.892 118.548 140.667 125.773 131.776 125.773C122.885 125.773 115.66 118.548 115.66 109.657C115.66 100.766 122.885 93.5407 131.776 93.5407ZM131.776 90.8547C121.395 90.8547 112.974 99.2753 112.974 109.657C112.974 120.038 121.395 128.459 131.776 128.459C142.158 128.459 150.578 120.038 150.578 109.657C150.578 99.2753 142.158 90.8547 131.776 90.8547Z" fill="#EEEEEE"/>
<path d="M131.776 117.715C136.226 117.715 139.834 114.107 139.834 109.657C139.834 105.206 136.226 101.599 131.776 101.599C127.326 101.599 123.718 105.206 123.718 109.657C123.718 114.107 127.326 117.715 131.776 117.715Z" fill="#BDBDBD"/>
<defs>
<linearGradient id="paint0_linear_23_201" x1="80.7942" y1="14.3031" x2="80.7942" y2="97.9189" gradientUnits="userSpaceOnUse">
<stop offset="0.0074201" stop-color="#FFF8E1"/>
<stop offset="0.1774" stop-color="#FFF6DA"/>
<stop offset="0.4164" stop-color="#FFF2C8"/>
<stop offset="0.6962" stop-color="#FFEAAA"/>
<stop offset="0.9948" stop-color="#FFE082"/>
</linearGradient>
<linearGradient id="paint1_linear_23_201" x1="102.36" y1="1.32018" x2="102.36" y2="83.2451" gradientUnits="userSpaceOnUse">
<stop offset="0.0048889" stop-color="#BCAAA4"/>
<stop offset="0.3916" stop-color="#AC958E"/>
<stop offset="0.9986" stop-color="#8D6E63"/>
</linearGradient>
</defs>
</svg>
